<?xml version="1.0" encoding="utf-8"?>
<!-- Generator: Adobe Illustrator 23.0.3, SVG Export Plug-In . SVG Version: 6.00 Build 0)  -->
<svg version="1.1" id="Layer_1" xmlns="http://www.w3.org/2000/svg" xmlns:xlink="http://www.w3.org/1999/xlink" x="0px" y="0px"
	 viewBox="0 0 14 14" style="enable-background:new 0 0 14 14;" xml:space="preserve">
<style type="text/css">
	.st0{fill-rule:evenodd;clip-rule:evenodd;fill:#C8AA6E;}
</style>
<g>
	<g>
		<path class="st0" d="M7,0C3.13,0,0,3.13,0,7c0,3.87,3.13,7,7,7s7-3.13,7-7C14,3.13,10.87,0,7,0z M7,12c-2.76,0-5-2.24-5-5
			s2.24-5,5-5s5,2.24,5,5S9.76,12,7,12z M7,4H6v3l0.67,0.33L7,8h3V7L7.6,6.4L7,4z"/>
	</g>
</g>
</svg>
